PathFileType	4	(X/Y/Z)	c:/Users/goper/Files/vsCode/490R/osim_files/C12/C12_ROM.trc
DataRate	CameraRate	NumFrames	NumMarkers	Units                	OrigDataRate	OrigDataStartFrame	OrigNumFrames
120.00	120.00	4	36	mm	120.0	1673	1911
                Frame#	Time	LPSIS			LASIS			LTH1			LTH2			LTH3			LTH4			LLFE			LMFE			LSH1			LSH2			LSH3			LSH4			LLMAL			LMMAL			LCAL			LMTP5			LTOE			LMTP1			RPSIS			RASIS			RTH1			RTH2			RTH3			RTH4			RLFE			RMFE			RSH1			RSH2			RSH3			RSH4			RLMAL			RMMAL			RCAL			RMTP1			RTOE			RMTP5		
		X1	Y1	Z1	X2	Y2	Z2	X3	Y3	Z3	X4	Y4	Z4	X5	Y5	Z5	X6	Y6	Z6	X7	Y7	Z7	X8	Y8	Z8	X9	Y9	Z9	X10	Y10	Z10	X11	Y11	Z11	X12	Y12	Z12	X13	Y13	Z13	X14	Y14	Z14	X15	Y15	Z15	X16	Y16	Z16	X17	Y17	Z17	X18	Y18	Z18	X19	Y19	Z19	X20	Y20	Z20	X21	Y21	Z21	X22	Y22	Z22	X23	Y23	Z23	X24	Y24	Z24	X25	Y25	Z25	X26	Y26	Z26	X27	Y27	Z27	X28	Y28	Z28	X29	Y29	Z29	X30	Y30	Z30	X31	Y31	Z31	X32	Y32	Z32	X33	Y33	Z33	X34	Y34	Z34	X35	Y35	Z35	X36	Y36	Z36

1673	13.93333	-486.29025	790.14276	401.47723	-353.71860	712.81677	326.12573	-328.76215	563.28680	201.75256	-289.63702	546.66492	191.56419	-299.99417	617.87213	203.65259	-264.20169	594.45227	189.52797	-109.13113	484.62933	154.06784	-79.12068	468.22327	278.21802	-167.77852	412.92624	146.88620	-186.90102	369.03845	143.26059	-113.99555	385.54092	139.69806	-141.07214	345.59030	140.44708	-286.59464	98.68275	199.23714	-270.70239	105.59599	274.76324	-352.00955	69.51925	243.84224	-164.98714	38.76403	155.94598	-108.63586	77.31013	218.01674	-130.29919	49.78647	262.15329	-490.62997	786.84821	512.44781	-333.66388	708.34143	584.81250	-299.89465	575.03967	705.32172	-257.21198	559.36987	712.72028	-269.08524	628.05188	694.04919	-229.75960	603.47577	706.52014	-100.93845	470.61169	737.02795	-76.29649	458.39478	609.22363	-165.46268	406.97543	748.36316	-182.30225	367.83621	755.45837	-110.89785	376.32220	755.74988	-135.93506	343.99850	762.37213	-285.39166	99.12534	709.38361	-262.03796	111.73924	631.81329	-360.04584	61.64286	661.01086	-140.30182	51.27402	653.37885	-105.50347	71.76008	691.93475	-149.44930	41.36247	758.61694
1674	13.94167	-487.33099	782.54034	401.57187	-354.66290	707.16193	326.14841	-328.27405	558.39905	201.62277	-288.85458	542.60748	189.92482	-300.48495	613.40131	203.63249	-264.21985	590.53967	189.44844	-107.51102	483.42960	153.53587	-77.14499	466.99026	277.75595	-165.56436	412.52274	146.54880	-185.29726	368.15985	142.87743	-112.55073	384.22864	138.96265	-139.62187	344.57385	140.09682	-286.34253	98.67452	199.40584	-270.49194	105.54563	274.96970	-351.82794	69.53947	244.10991	-164.97723	38.72456	155.95331	-108.54132	77.10110	218.11353	-130.24815	49.51600	262.18201	-491.21002	779.23572	512.24805	-334.44971	702.71765	584.89056	-300.01016	570.52216	705.47943	-257.32727	555.37689	712.85150	-270.07101	623.89722	694.03461	-230.38939	599.94226	706.61646	-99.80809	469.33762	737.80267	-74.62827	457.05588	609.82233	-164.24454	406.11887	748.95453	-180.94661	367.08640	755.91547	-109.66695	375.27649	756.22174	-134.69170	343.02319	762.83136	-284.93634	99.03191	708.95673	-261.83490	111.63710	631.67029	-359.99252	61.71726	660.88049	-140.21886	51.13137	653.38190	-105.49836	71.50175	692.00922	-149.47845	41.25702	758.67688
1675	13.95000	-487.91495	774.87915	401.59717	-355.59436	701.60986	326.17108	-327.75787	553.62152	201.51193	-288.05573	538.45166	189.72832	-300.98703	608.93121	203.60439	-264.30856	586.68219	189.45451	-105.96592	482.23880	153.08533	-75.34787	465.68530	277.40085	-163.87685	411.64410	146.15425	-183.73079	367.39026	142.50377	-110.88324	383.14020	138.62294	-137.97699	343.64597	139.83684	-286.08246	98.69524	199.58594	-270.23447	105.48178	275.22760	-351.71609	69.59026	244.34889	-164.94421	38.70779	155.97661	-108.41233	76.90436	218.21941	-130.16216	49.24507	262.21439	-491.88507	771.50128	512.12640	-335.23367	697.19757	584.96155	-300.08813	566.00604	705.64264	-257.18936	551.50629	713.06207	-271.07288	619.69781	694.07776	-230.95648	596.43823	706.72375	-98.53008	468.14038	738.62244	-73.08740	455.64511	610.37738	-162.83646	405.38010	749.47943	-179.70119	366.34543	756.28967	-108.33356	374.35532	756.80475	-133.48372	342.16367	763.24738	-284.81277	99.02453	708.82587	-261.63309	111.58694	631.57697	-359.94662	61.81616	660.77740	-140.12196	51.05452	653.39026	-105.25201	71.49117	691.88696	-149.48820	41.19465	758.73041
1676	13.95833	-488.01297	767.23541	401.38611	-356.51245	696.16156	326.19382	-327.17825	548.99292	203.08771	-287.37463	534.16364	189.67976	-301.33569	604.43524	203.54674	-264.38187	582.77832	189.35719	-104.43777	481.07050	152.66008	-73.66685	464.36304	277.14340	-162.40262	410.72046	145.74237	-181.82658	367.42834	142.17937	-109.30214	382.11899	138.39798	-136.67227	342.69968	139.62495	-285.81717	98.72761	199.83150	-269.84000	105.37519	275.54160	-351.60184	69.62641	244.59140	-164.89581	38.70909	156.04634	-108.28178	76.67052	218.38934	-130.06516	48.97383	262.31085	-492.45758	763.94318	512.07721	-336.01526	691.78198	585.02557	-300.31598	561.54468	705.86383	-257.07413	547.67407	713.34491	-272.12396	615.55756	694.15259	-231.66614	592.97827	706.90753	-97.38455	467.00748	739.48657	-71.66367	454.36572	611.04852	-161.59213	404.69019	749.98425	-178.42805	365.73743	756.84680	-107.25699	373.38480	757.30798	-132.51266	341.37680	763.75946	-284.67023	99.02218	708.72296	-261.46594	111.54085	631.49945	-359.83545	61.92143	660.66870	-140.04767	50.95466	653.41901	-105.17254	71.36901	691.88177	-149.45604	41.13943	758.79065
